<?xml version="1.0" encoding="UTF-8"?>
<svg width="165px" height="30px" viewBox="0 0 165 30" version="1.1" xmlns="http://www.w3.org/2000/svg" xmlns:xlink="http://www.w3.org/1999/xlink">
    <title>Front Page / Logos / DarkBlue / Salesforce@1x</title>
    <g id="Desktop" stroke="none" stroke-width="1" fill="none" fill-rule="evenodd">
        <g id="Front-Page" transform="translate(-71.000000, -9834.000000)" fill="#17024A">
            <g id="Footer" transform="translate(0.000000, 9734.000000)">
                <g id="Group-18" transform="translate(71.000000, 99.000000)">
                    <g id="Front-Page-/-Logos-/-DarkBlue-/-Salesforce" transform="translate(0.000000, 1.000000)">
                        <path d="M15.1523289,19.3620394 C14.908807,19.3987659 14.6614752,19.4237273 14.4076346,19.4237273 C11.6534884,19.4237273 9.42083443,17.1877012 9.42083443,14.4293952 C9.42083443,11.6710892 11.6534884,9.43506319 14.4076346,9.43506319 C14.6614752,9.43506319 14.908807,9.46002452 15.1523289,9.49675105 C16.9058766,6.21711902 20.3513773,3.98300086 24.321704,3.96503507 C21.7386897,1.50960375 18.250168,0 14.4076346,0 C6.45047124,0 0,6.46021371 0,14.4293952 C0,22.3984177 6.45047124,28.8586315 14.4076346,28.8586315 C18.250168,28.8586315 21.7386897,27.3491867 24.321704,24.8935964 C20.3513773,24.8757896 16.9058766,22.6416714 15.1523289,19.3620394" id="Fill-1"></path>
                        <path d="M24.368932,3.96272972 C24.353057,3.96272972 24.3376583,3.96511456 24.3216246,3.96511456 C27.0875183,6.59432122 28.8150312,10.3086301 28.8150312,14.4293157 C28.8150312,18.5500014 27.0875183,22.2643102 24.3216246,24.8936759 C24.3376583,24.8936759 24.353057,24.8959017 24.368932,24.8959017 C30.1407488,24.8959017 34.8197336,20.20985 34.8197336,14.4293157 C34.8197336,8.64878143 30.1407488,3.96272972 24.368932,3.96272972" id="Fill-4"></path>
                        <path d="M15.1523289,19.3620394 C17.5521461,19.0011336 19.3942761,16.9334773 19.3942761,14.4293952 C19.3942761,11.9253132 17.5521461,9.85765685 15.1523289,9.49675105 C14.366201,10.9667665 13.9182097,12.6452169 13.9182097,14.4293952 C13.9182097,16.2135736 14.366201,17.892024 15.1523289,19.3620394" id="Fill-6"></path>
                        <path d="M50.3087386,24.6466224 C45.4133781,24.6466224 42.4028513,22.251448 42.4028513,18.672757 L45.6662662,18.672757 C45.6662662,20.5893735 47.2418556,21.9132777 50.3366785,21.9132777 C52.7563394,21.9132777 54.6413318,20.7583791 54.6413318,18.8139395 C54.6413318,17.0672827 53.5723122,16.3063597 51.4622129,15.9115892 L48.2265792,15.2918488 C44.6815426,14.6442852 42.8248076,12.6996866 42.8248076,9.79733629 C42.8248076,6.41642805 45.6945236,4.02141268 50.1960264,4.02141268 C54.2476329,4.02141268 57.6234425,5.880475 57.6234425,9.93851882 L54.4443236,9.93851882 C54.4443236,7.76831438 52.728082,6.67017503 50.1115716,6.67017503 C47.8046229,6.67017503 46.1166387,7.74049125 46.1166387,9.57173042 C46.1166387,11.2067768 47.1296197,12.023505 49.3519549,12.4460986 L52.5875886,13.037857 C56.2448612,13.7141976 57.9611028,15.7146014 57.9611028,18.7573393 C57.9611028,22.4772129 54.6130744,24.6466224 50.3087386,24.6466224" id="Fill-8"></path>
                        <path d="M71.8624374,17.1797359 C71.8624374,14.2215803 70.1179384,12.3895461 67.5858828,12.3895461 C65.1662219,12.361564 63.3094869,14.2215803 63.3094869,17.207718 C63.3094869,20.1666685 65.1662219,21.9133254 67.5858828,21.9133254 C70.089681,21.9133254 71.8624374,20.1386864 71.8624374,17.1797359 M75.0415563,17.1797359 C75.0415563,21.8575201 72.1718403,24.64667 68.2046886,24.64667 C66.0102933,24.64667 64.097361,23.7453595 63.2250321,22.2514957 L63.2250321,30 L60.1586255,30 L60.1586255,9.93856652 L62.9718266,9.93856652 L63.2250321,12.1359581 C64.097361,10.6428893 65.954096,9.65620146 68.2046886,9.65620146 C72.031347,9.65620146 75.0415563,12.3337409 75.0415563,17.1797359" id="Fill-10"></path>
                        <path d="M86.466604,18.0817778 L82.6966193,18.0817778 C80.6144599,18.0817778 79.9673967,19.0109114 79.9673967,20.0820226 C79.9673967,21.5472683 81.1210298,22.1948319 82.6966193,22.1948319 C84.8348172,22.1948319 86.466604,21.0399334 86.466604,18.6727411 L86.466604,18.0817778 Z M91.0525616,22.0544443 L91.0525616,24.3650363 L89.3080626,24.3650363 C88.1266483,24.3650363 87.0574699,23.9136656 86.8325218,22.5330022 C86.0162315,23.8012601 84.2439513,24.6466065 81.9933587,24.6466065 C78.8139223,24.6466065 76.7882778,22.9845319 76.7882778,20.2232051 C76.7882778,17.7715896 78.3356099,15.9681735 82.2745042,15.9681735 L86.466604,15.9681735 L86.466604,15.2352327 C86.466604,13.1224234 85.2004175,12.1358945 83.3157426,12.1358945 C81.4024928,12.1358945 80.1645637,13.0938053 80.0801089,14.5876691 L77.2386503,14.5876691 C77.3231051,11.4595539 79.8829419,9.65629685 83.4279785,9.65629685 C86.8042644,9.65629685 89.5612681,11.3471484 89.5612681,15.2640097 L89.5612681,21.0965336 C89.5612681,21.8854386 89.8706711,22.0544443 90.5182105,22.0544443 L91.0525616,22.0544443 Z" id="Fill-13"></path>
                        <path d="M93.4746038,20.4481909 L93.4746038,12.6718635 L91.0552603,12.6718635 L91.0552603,9.93851882 L92.2931895,9.93851882 C93.1934583,9.93851882 93.4746038,9.4871481 93.4746038,8.58583755 L93.4746038,6.07825773 L96.5414867,6.07825773 L96.5414867,9.93851882 L99.8893564,9.93851882 L99.8893564,12.6718635 L96.5414867,12.6718635 L96.5414867,19.8564326 C96.5414867,21.0121261 96.879147,21.6317076 98.2293121,21.6317076 L99.8610989,21.6317076 L99.8610989,24.3650522 L97.3573007,24.3650522 C94.8535025,24.3650522 93.4746038,22.9557708 93.4746038,20.4481909" id="Fill-15"></path>
                        <path d="M102.057098,24.3650363 L105.123504,24.3650363 L105.123504,9.93850292 L102.057098,9.93850292 L102.057098,24.3650363 Z M101.888188,7.23329936 L105.292255,7.23329936 L105.292255,4.02139678 L101.888188,4.02139678 L101.888188,7.23329936 Z" id="Fill-17"></path>
                        <path d="M117.080966,18.0817778 L113.310982,18.0817778 C111.229298,18.0817778 110.581759,19.0109114 110.581759,20.0820226 C110.581759,21.5472683 111.735392,22.1948319 113.310982,22.1948319 C115.44918,22.1948319 117.080966,21.0399334 117.080966,18.6727411 L117.080966,18.0817778 Z M121.666924,22.0544443 L121.666924,24.3650363 L119.922425,24.3650363 C118.741011,24.3650363 117.671832,23.9136656 117.446884,22.5330022 C116.63107,23.8012601 114.858314,24.6466065 112.607721,24.6466065 C109.428602,24.6466065 107.40264,22.9845319 107.40264,20.2232051 C107.40264,17.7715896 108.949972,15.9681735 112.888866,15.9681735 L117.080966,15.9681735 L117.080966,15.2352327 C117.080966,13.1224234 115.81478,12.1358945 113.929787,12.1358945 C112.016855,12.1358945 110.778926,13.0938053 110.694471,14.5876691 L107.853013,14.5876691 C107.937467,11.4595539 110.497304,9.65629685 114.042341,9.65629685 C117.418627,9.65629685 120.17563,11.3471484 120.17563,15.2640097 L120.17563,21.0965336 C120.17563,21.8854386 120.485033,22.0544443 121.132097,22.0544443 L121.666924,22.0544443 Z" id="Fill-19"></path>
                        <polygon id="Fill-20" points="123.554647 24.3650363 126.621053 24.3650363 126.621053 3.42947948 123.554647 3.42947948"></polygon>
                        <path d="M147.863397,13.1503896 L147.863397,24.3930026 L145.246886,24.3930026 L144.909226,21.5752345 C143.47413,23.5474973 141.167181,24.6187674 138.297465,24.6187674 C132.839496,24.6187674 128.928859,20.7017471 128.928859,14.5876532 C128.928859,8.38881796 132.839496,4.02138089 138.719422,4.02138089 C143.47413,4.02138089 146.822158,6.58556091 147.778942,10.6148277 L144.262163,10.6148277 C143.333637,8.07862977 141.251477,6.92373123 138.69164,6.92373123 C134.780686,6.92373123 132.22069,9.85406369 132.22069,14.3618883 C132.22069,18.870508 134.752746,21.7442402 138.607186,21.7442402 C141.195439,21.7442402 144.640463,20.2546691 144.68396,16.3909103 C144.685548,16.2498867 144.671895,15.8269751 144.671895,15.8269751 L138.438276,15.8269751 L138.438276,13.1503896 L147.863397,13.1503896 Z" id="Fill-21"></path>
                        <path d="M157.572266,21.9978759 C160.160837,21.9978759 161.848821,20.0820544 161.848821,17.1231039 C161.848821,14.1369661 160.160837,12.2491268 157.572266,12.2491268 C155.012271,12.2491268 153.323969,14.1369661 153.323969,17.1231039 C153.323969,20.0820544 155.012271,21.9978759 157.572266,21.9978759 M157.572266,9.62834653 C161.961533,9.62834653 165,12.6997025 165,17.1518809 C165,21.6039003 161.961533,24.6466382 157.572266,24.6466382 C153.211733,24.6466382 150.173108,21.6039003 150.173108,17.1518809 C150.173108,12.6997025 153.211733,9.62834653 157.572266,9.62834653" id="Fill-22"></path>
                    </g>
                </g>
            </g>
        </g>
    </g>
</svg>